<svg width="82" height="82" viewBox="0 0 82 82" fill="none" xmlns="http://www.w3.org/2000/svg">
<circle cx="41" cy="41" r="41" fill="#00204E"/>
<circle cx="41" cy="41" r="23" stroke="white" stroke-width="2"/>
<path d="M57.9714 57C53.9362 52.114 47.8317 49 41 49C34.4292 49 28.5312 51.8807 24.5 56.448" stroke="white" stroke-width="2"/>
<circle cx="23" cy="41" r="1" fill="white"/>
<circle cx="59" cy="41" r="1" fill="white"/>
<circle cx="24" cy="35" r="1" fill="white"/>
<circle cx="58" cy="35" r="1" fill="white"/>
<circle cx="27" cy="30" r="1" fill="white"/>
<circle cx="55" cy="30" r="1" fill="white"/>
<circle cx="32" cy="26" r="1" fill="white"/>
<circle cx="50" cy="26" r="1" fill="white"/>
<circle cx="38" cy="24" r="1" fill="white"/>
<circle cx="44" cy="24" r="1" fill="white"/>
<rect x="53.3394" y="39" width="2" height="16.1934" rx="1" transform="rotate(52.9503 53.3394 39)" fill="white"/>
</svg>
