<svg width="82" height="82" viewBox="0 0 82 82" fill="none" xmlns="http://www.w3.org/2000/svg">
<circle cx="41" cy="41" r="41" fill="#00204E"/>
<path d="M60.2695 34.5041L65.1628 29.6111C65.3737 29.4002 65.492 29.1144 65.492 28.8163C65.492 28.5181 65.3737 28.2323 65.1628 28.0215L53.4703 16.3291C53.0313 15.8903 52.3197 15.8903 51.8807 16.3291L49.5866 18.6231C46.9608 17.3254 43.6872 17.7662 41.504 19.9492L36.3845 25.0686C35.656 25.0003 34.9221 24.9857 34.1918 25.0299L30.6113 21.4493C30.4004 21.2385 30.1145 21.1202 29.8165 21.1202C29.5185 21.1202 29.2325 21.2385 29.0217 21.4493L17.3292 33.1417C17.1183 33.3525 17 33.6383 17 33.9365C17 34.2346 17.1183 34.5204 17.3293 34.7313L19.0941 36.4962L18.3961 43.5113C17.7465 45.0691 18.0535 46.9347 19.319 48.2003C20.1551 49.0365 21.2535 49.4546 22.3519 49.4546C22.4158 49.4546 22.4799 49.4528 22.5438 49.4501C22.5409 49.5145 22.5391 49.579 22.5391 49.6439C22.5391 50.7895 22.9853 51.8667 23.7954 52.6768C24.6056 53.4868 25.6826 53.933 26.8284 53.933C26.8933 53.933 26.9578 53.9311 27.0222 53.9283C26.9706 55.0899 27.387 56.2684 28.2719 57.1533C29.0821 57.9633 30.1591 58.4095 31.3049 58.4095C31.3698 58.4095 31.4343 58.4076 31.4987 58.4048C31.4472 59.5664 31.8635 60.7449 32.7485 61.6298C33.5846 62.466 34.683 62.8841 35.7814 62.8841C36.5776 62.8841 37.3737 62.6631 38.0701 62.2237C38.0863 62.242 38.1019 62.2606 38.1194 62.2781L40.5591 64.718C41.4141 65.573 42.5369 66.0004 43.6601 66.0004C44.7829 66.0004 45.906 65.5729 46.7609 64.718C47.5892 63.8898 48.0454 62.7885 48.0454 61.6171C48.0454 61.5389 48.043 61.4612 48.0389 61.3838C48.1163 61.3878 48.1942 61.3902 48.2722 61.3902C49.4437 61.3902 50.5448 60.934 51.3732 60.1057C52.2015 59.2775 52.6577 58.1762 52.6577 57.0047C52.6577 56.9257 52.6553 56.8472 52.6511 56.769C52.7288 56.7732 52.8067 56.7756 52.8846 56.7756C54.0076 56.7756 55.1305 56.3482 55.9855 55.4934C56.8137 54.665 57.2699 53.5637 57.2699 52.3924C57.2699 52.3142 57.2675 52.2365 57.2635 52.1591C57.341 52.1631 57.4187 52.1655 57.4969 52.1655C58.6682 52.1655 59.7695 51.7094 60.5979 50.881C61.4261 50.0527 61.8822 48.9514 61.8822 47.7801C61.8822 46.6088 61.4261 45.5074 60.5979 44.6791L57.9809 42.0621C59.4916 39.7736 60.2388 37.1479 60.2451 34.5267C60.253 34.5188 60.2615 34.5121 60.2695 34.5041ZM52.6754 18.7133L62.7785 28.8163L59.951 31.6436C59.418 29.0969 58.1677 26.6805 56.2179 24.7304L51.4381 19.9506L52.6754 18.7133ZM20.9086 46.6107C20.1127 45.8148 20.1127 44.5197 20.9086 43.7238H20.9084L22.6098 42.0227C22.9951 41.6372 23.5079 41.4248 24.0531 41.4248C24.5982 41.4248 25.111 41.6371 25.4965 42.0227C25.882 42.4084 26.0945 42.9209 26.0945 43.4662C26.0945 44.0115 25.8822 44.5242 25.4964 44.9097L25.1698 45.2363L23.7954 46.6107H23.7955C22.9994 47.4063 21.7043 47.4066 20.9086 46.6107ZM26.8284 51.685C26.2831 51.685 25.7704 51.4727 25.3849 51.087C24.9994 50.7013 24.787 50.1888 24.787 49.6436C24.787 49.0988 24.9989 48.5866 25.384 48.2011C25.3843 48.2007 25.3846 48.2004 25.3851 48.1999L28.6267 44.9582C29.012 44.5727 29.5249 44.3602 30.07 44.3602C30.6153 44.3602 31.128 44.5725 31.5135 44.9582C32.3092 45.7539 32.3094 47.0487 31.5141 47.8446L30.7734 48.5853L28.2717 51.0867C27.8863 51.4727 27.3735 51.685 26.8284 51.685ZM31.3049 56.1613C30.7596 56.1613 30.2469 55.949 29.8614 55.5634C29.0655 54.7674 29.0655 53.4723 29.8614 52.6764H29.8613L33.1032 49.4348C33.1038 49.4342 33.1043 49.4335 33.105 49.4329L34.4656 48.0723C34.8509 47.6868 35.3638 47.4743 35.9089 47.4743C36.454 47.4743 36.9668 47.6866 37.3523 48.0723C37.7379 48.458 37.9503 48.9705 37.9503 49.5157C37.9503 50.061 37.738 50.5737 37.3522 50.9592L35.9898 52.3216L32.7482 55.5632C32.3628 55.949 31.85 56.1613 31.3049 56.1613ZM34.3378 60.0399C33.5419 59.2439 33.5419 57.9488 34.3378 57.1529L37.5797 53.9108C38.3758 53.1156 39.6706 53.1154 40.4663 53.9113C41.2622 54.7072 41.2622 56.0023 40.4663 56.7982L37.2249 60.04C36.4289 60.8356 35.1337 60.8359 34.3378 60.0399ZM59.634 47.7797C59.634 48.3507 59.4116 48.8873 59.008 49.2911C58.6043 49.6948 58.0677 49.9172 57.4968 49.9172C56.9258 49.9172 56.389 49.6948 55.9854 49.2911L55.3433 48.649C54.9043 48.2102 54.1927 48.2102 53.7537 48.649C53.3149 49.0878 53.3149 49.7996 53.7537 50.2384L54.396 50.8805C54.7996 51.2842 55.0218 51.8209 55.0218 52.3919C55.0218 52.9629 54.7995 53.4995 54.396 53.9033C53.5628 54.7365 52.2067 54.7368 51.3732 53.9033L50.7311 53.2612C50.2921 52.8224 49.5805 52.8224 49.1415 53.2612C48.7027 53.7 48.7027 54.4118 49.1415 54.8506L49.7838 55.4927C50.1874 55.8964 50.4097 56.4331 50.4097 57.0041C50.4097 57.5751 50.1873 58.1118 49.7836 58.5155C48.9505 59.3488 47.5948 59.3488 46.7615 58.516C46.7613 58.5158 46.7612 58.5156 46.761 58.5155C46.7609 58.5152 46.7605 58.515 46.7602 58.5147L46.1188 57.8734C45.6801 57.4346 44.9683 57.4346 44.5294 57.8735C44.0905 58.3124 44.0905 59.0241 44.5295 59.463L45.1714 60.1049C45.5753 60.5087 45.7975 61.0453 45.7975 61.6163C45.7975 62.1872 45.5751 62.724 45.1714 63.1276C44.3381 63.9611 42.982 63.961 42.1487 63.1276L39.7324 60.7113L42.0564 58.3872C43.7286 56.7148 43.7286 53.9937 42.0562 52.3213C41.4377 51.7028 40.6755 51.3136 39.8761 51.1527C40.0875 50.6403 40.1985 50.0864 40.1985 49.5153C40.1985 48.3696 39.7523 47.2924 38.9422 46.4824C38.132 45.6723 37.055 45.2261 35.9092 45.2261C35.3382 45.2261 34.7843 45.3371 34.2719 45.5486C34.1109 44.7491 33.7218 43.9869 33.1032 43.3684C32.293 42.5582 31.2159 42.1122 30.0702 42.1122C29.4257 42.1122 28.803 42.2533 28.2373 42.521C28.0617 41.7361 27.6686 41.0152 27.0861 40.4327C26.2759 39.6227 25.1988 39.1764 24.0531 39.1764C22.9073 39.1764 21.8302 39.6227 21.0202 40.4327L20.9548 40.498L21.3835 36.1885C21.4169 35.8533 21.2981 35.5207 21.0597 35.2825L19.7132 33.936L29.8163 23.833L32.9691 26.986C33.1904 27.2073 33.4874 27.3258 33.8074 27.314C33.8375 27.3129 33.8673 27.3105 33.897 27.307C34.6819 27.231 35.4742 27.2333 36.2584 27.3124L35.5601 34.4737C35.4423 35.684 35.8027 36.8675 36.5752 37.8065C37.3478 38.7455 38.4398 39.3274 39.6502 39.4446C39.7988 39.459 39.9461 39.4661 40.0925 39.4661C42.4056 39.4661 44.3909 37.7031 44.6185 35.3542L44.9256 32.1857L59.008 46.268C59.4116 46.6722 59.634 47.2089 59.634 47.7797ZM56.3518 40.4332L45.433 29.5142C45.3625 29.4436 45.2842 29.3856 45.2018 29.3378L45.4163 27.1244C45.4762 26.5066 45.0239 25.9571 44.406 25.8972C43.7877 25.8367 43.2386 26.2895 43.1787 26.9075L42.3809 35.1378C42.2585 36.4016 41.1301 37.33 39.8669 37.2076C39.2545 37.1482 38.7019 36.8539 38.3109 36.3786C37.9199 35.9035 37.7377 35.3046 37.7973 34.6921L38.6462 25.9859L43.0934 21.5386C44.9553 19.6765 47.985 19.6765 49.8469 21.5386L54.6281 26.32C58.4044 30.0961 59.0529 35.9581 56.3518 40.4332Z" fill="white"/>
<rect x="32.2962" y="25" width="2" height="18.2929" transform="rotate(44.8218 32.2962 25)" fill="white"/>
</svg>
