<svg width="121" height="93" viewBox="0 0 121 93" fill="none" xmlns="http://www.w3.org/2000/svg">
<path d="M24.5135 87.3502C24.5135 88.9349 25.0301 90.2784 26.0632 91.3808C27.1193 92.4603 28.5886 93 30.4712 93C32.3308 93 33.7887 92.4603 34.8447 91.3808C35.9238 90.3014 36.4633 88.9579 36.4633 87.3502C36.4633 85.7425 35.9352 84.3875 34.8792 83.2851C33.8231 82.1597 32.3538 81.597 30.4712 81.597C28.5657 81.597 27.0963 82.1597 26.0632 83.2851C25.0301 84.4104 24.5135 85.7655 24.5135 87.3502Z" fill="white"/>
<path d="M75.1157 92.311H83.5184V91.7253C83.0592 90.7607 82.7034 89.6124 82.4508 88.2803C82.2212 86.9253 82.1064 85.4095 82.1064 83.7329V67.1624C82.1064 65.0495 81.7161 63.1892 80.9356 61.5815C80.155 59.9509 79.076 58.6073 77.6985 57.5508C76.321 56.4944 74.6795 55.702 72.7739 55.1738C70.8914 54.6226 68.8596 54.347 66.6785 54.347C64.245 54.347 62.0754 54.6685 60.1699 55.3116C58.2873 55.9317 56.6917 56.7814 55.3831 57.8609C54.0745 58.9174 53.0758 60.1346 52.3871 61.5126C51.6983 62.8906 51.3425 64.326 51.3195 65.8189H59.5845C59.5845 65.1069 59.7107 64.4409 59.9633 63.8208C60.2388 63.1777 60.652 62.638 61.203 62.2016C61.754 61.7193 62.4427 61.3403 63.2692 61.0647C64.1187 60.7891 65.1059 60.6513 66.2309 60.6513C67.4706 60.6513 68.5611 60.8121 69.5024 61.1336C70.4666 61.4322 71.2817 61.8686 71.9474 62.4428C72.5673 63.0169 73.038 63.6944 73.3594 64.4753C73.7037 65.2562 73.8759 66.1289 73.8759 67.0935V69.6084H67.8838C65.1977 69.6084 62.7871 69.861 60.652 70.3663C58.5399 70.8715 56.7606 71.6065 55.3142 72.5711C53.7531 73.6046 52.5592 74.9137 51.7328 76.4984C50.9292 78.0601 50.5274 79.863 50.5274 81.9071C50.5274 83.4918 50.8374 84.9731 51.4573 86.3511C52.1001 87.7062 52.984 88.866 54.1089 89.8306C55.2568 90.8182 56.6228 91.599 58.207 92.1732C59.814 92.7244 61.5818 93 63.5103 93C64.7041 93 65.8176 92.8852 66.8507 92.6555C67.8838 92.4258 68.8481 92.1043 69.7435 91.6909C70.6388 91.3005 71.4424 90.8411 72.1541 90.3129C72.8887 89.7617 73.543 89.1875 74.117 88.5904C74.2318 89.3024 74.358 89.9914 74.4958 90.6574C74.6565 91.3005 74.8631 91.8517 75.1157 92.311ZM65.0944 86.3856C64.0383 86.3856 63.12 86.2593 62.3394 86.0066C61.5589 85.731 60.9045 85.3636 60.3765 84.9042C59.8485 84.4449 59.4467 83.8937 59.1712 83.2506C58.8957 82.5846 58.758 81.8726 58.758 81.1147C58.758 80.196 58.9187 79.3692 59.2401 78.6343C59.5845 77.8994 60.101 77.2678 60.7898 76.7395C61.5703 76.1194 62.6149 75.6486 63.9235 75.3271C65.2322 74.9826 66.7818 74.8103 68.5726 74.8103H73.8759V81.7004C73.5775 82.2975 73.1527 82.8717 72.6017 83.4229C72.0508 83.9741 71.3964 84.4679 70.6388 84.9042C69.8812 85.3406 69.0317 85.6966 68.0905 85.9722C67.1721 86.2478 66.1735 86.3856 65.0944 86.3856Z" fill="white"/>
<path d="M90.2819 55.036V61.8916H101.749V85.4899H90.2819V92.311H121V85.4899H110.049V55.036H90.2819ZM100.992 45.3899C100.992 46.2627 101.199 47.0321 101.612 47.6981C102.048 48.3412 102.679 48.789 103.506 49.0417C104.309 49.2943 105.044 49.3517 105.71 49.2139C106.376 49.0761 106.95 48.789 107.432 48.3527C108.396 48.1 109.131 47.6062 109.636 46.8713C110.141 46.1134 110.313 45.2292 110.152 44.2186C110.037 43.2311 109.59 42.4272 108.809 41.8071C108.052 41.1641 107.053 40.8425 105.813 40.8425C105.078 40.8425 104.413 40.9574 103.816 41.187C103.242 41.3937 102.748 41.6923 102.335 42.0827C101.899 42.4961 101.566 42.9899 101.336 43.5641C101.107 44.1153 100.992 44.7239 100.992 45.3899Z" fill="white"/>
<path d="M30.147 36.632L14.0475 0H0L23.7809 48.8952L23.8335 76.6324H36.1974L36.3026 49.2637L60.2939 0H46.1938L30.147 36.632Z" fill="white"/>
</svg>
