<svg width="139" height="119" viewBox="0 0 139 119" fill="none" xmlns="http://www.w3.org/2000/svg">
<rect width="139" height="119" rx="30" fill="#F39B2F"/>
<g filter="url(#filter0_d)">
<path d="M41.0198 91.8871C41.0198 93.1449 41.4299 94.2113 42.2502 95.0863C43.0888 95.9431 44.2555 96.3715 45.7502 96.3715C47.2268 96.3715 48.3844 95.9431 49.2229 95.0863C50.0797 94.2295 50.5081 93.1631 50.5081 91.8871C50.5081 90.611 50.0888 89.5355 49.2502 88.6605C48.4117 87.7673 47.245 87.3207 45.7502 87.3207C44.2372 87.3207 43.0706 87.7673 42.2502 88.6605C41.4299 89.5538 41.0198 90.6293 41.0198 91.8871Z" fill="url(#paint0_linear)"/>
<path d="M81.1987 95.8246H87.8705V95.3597C87.506 94.5941 87.2234 93.6827 87.0229 92.6254C86.8406 91.5498 86.7494 90.3467 86.7494 89.016V75.8636C86.7494 74.1866 86.4395 72.71 85.8198 71.434C85.2 70.1397 84.3432 69.0733 83.2494 68.2347C82.1557 67.3962 80.8523 66.7673 79.3393 66.348C77.8445 65.9105 76.2312 65.6918 74.4994 65.6918C72.5672 65.6918 70.8445 65.947 69.3315 66.4574C67.8367 66.9496 66.5698 67.6241 65.5307 68.4808C64.4916 69.3194 63.6987 70.2855 63.1518 71.3793C62.6049 72.473 62.3224 73.6123 62.3041 74.7972H68.8666C68.8666 74.2321 68.9669 73.7035 69.1674 73.2113C69.3862 72.7009 69.7143 72.2725 70.1518 71.9261C70.5893 71.5433 71.1362 71.2426 71.7924 71.0238C72.4669 70.8051 73.2507 70.6957 74.144 70.6957C75.1283 70.6957 75.9942 70.8233 76.7416 71.0785C77.5073 71.3155 78.1544 71.6618 78.683 72.1176C79.1752 72.5733 79.5489 73.111 79.8041 73.7308C80.0776 74.3506 80.2143 75.0433 80.2143 75.809V77.8051H75.4565C73.3237 77.8051 71.4096 78.0056 69.7143 78.4066C68.0372 78.8077 66.6244 79.391 65.476 80.1566C64.2364 80.9769 63.2885 82.016 62.6323 83.2738C61.9942 84.5134 61.6752 85.9444 61.6752 87.5668C61.6752 88.8246 61.9213 90.0004 62.4135 91.0941C62.9239 92.1696 63.6257 93.0902 64.519 93.8558C65.4304 94.6397 66.5151 95.2595 67.7729 95.7152C69.0489 96.1527 70.4526 96.3715 71.9838 96.3715C72.9317 96.3715 73.8158 96.2803 74.6362 96.098C75.4565 95.9157 76.2221 95.6605 76.933 95.3324C77.644 95.0225 78.282 94.6579 78.8471 94.2386C79.4304 93.8011 79.95 93.3454 80.4057 92.8715C80.4968 93.4366 80.5971 93.9834 80.7065 94.5121C80.8341 95.0225 80.9981 95.46 81.1987 95.8246ZM73.2416 91.1215C72.4031 91.1215 71.6739 91.0212 71.0541 90.8207C70.4343 90.6019 69.9148 90.3103 69.4955 89.9457C69.0763 89.5811 68.7573 89.1436 68.5385 88.6332C68.3198 88.1045 68.2104 87.5394 68.2104 86.9379C68.2104 86.2087 68.338 85.5525 68.5932 84.9691C68.8666 84.3858 69.2768 83.8845 69.8237 83.4652C70.4435 82.973 71.2729 82.5993 72.3119 82.3441C73.351 82.0707 74.5815 81.934 76.0033 81.934H80.2143V87.4027C79.9773 87.8767 79.6401 88.3324 79.2026 88.7699C78.7651 89.2074 78.2455 89.5993 77.644 89.9457C77.0424 90.292 76.3679 90.5746 75.6205 90.7933C74.8914 91.0121 74.0984 91.1215 73.2416 91.1215Z" fill="url(#paint1_linear)"/>
<path d="M93.2409 66.2386V71.6801H102.346V90.4105H93.2409V95.8246H117.632V90.4105H108.936V66.2386H93.2409ZM101.745 58.5824C101.745 59.2751 101.909 59.8858 102.237 60.4144C102.583 60.9248 103.085 61.2803 103.741 61.4808C104.379 61.6814 104.962 61.7269 105.491 61.6176C106.02 61.5082 106.475 61.2803 106.858 60.934C107.624 60.7334 108.207 60.3415 108.608 59.7582C109.009 59.1566 109.146 58.4548 109.018 57.6527C108.927 56.8689 108.572 56.2308 107.952 55.7386C107.35 55.2282 106.557 54.973 105.573 54.973C104.99 54.973 104.461 55.0642 103.987 55.2465C103.531 55.4105 103.139 55.6475 102.811 55.9574C102.465 56.2855 102.201 56.6774 102.018 57.1332C101.836 57.5707 101.745 58.0538 101.745 58.5824Z" fill="url(#paint2_linear)"/>
<path d="M45.4927 51.6311L32.7095 22.5555H21.5555L40.4379 61.3647L40.4797 83.3802H50.2969L50.3804 61.6571L69.4299 22.5555H58.2341L45.4927 51.6311Z" fill="url(#paint3_linear)"/>
</g>
<defs>
<filter id="filter0_d" x="19.5555" y="20.5555" width="104.076" height="81.8159" filterUnits="userSpaceOnUse" color-interpolation-filters="sRGB">
<feFlood flood-opacity="0" result="BackgroundImageFix"/>
<feColorMatrix in="SourceAlpha" type="matrix" values="0 0 0 0 0 0 0 0 0 0 0 0 0 0 0 0 0 0 127 0"/>
<feOffset dx="2" dy="2"/>
<feGaussianBlur stdDeviation="2"/>
<feColorMatrix type="matrix" values="0 0 0 0 0 0 0 0 0 0 0 0 0 0 0 0 0 0 0.25 0"/>
<feBlend mode="normal" in2="BackgroundImageFix" result="effect1_dropShadow"/>
<feBlend mode="normal" in="SourceGraphic" in2="effect1_dropShadow" result="shape"/>
</filter>
<linearGradient id="paint0_linear" x1="79.3256" y1="54.973" x2="79.3256" y2="96.3715" gradientUnits="userSpaceOnUse">
<stop stop-color="#2D4591"/>
<stop offset="1" stop-color="#1688D3"/>
</linearGradient>
<linearGradient id="paint1_linear" x1="79.3256" y1="54.973" x2="79.3256" y2="96.3715" gradientUnits="userSpaceOnUse">
<stop stop-color="#2D4591"/>
<stop offset="1" stop-color="#1688D3"/>
</linearGradient>
<linearGradient id="paint2_linear" x1="79.3256" y1="54.973" x2="79.3256" y2="96.3715" gradientUnits="userSpaceOnUse">
<stop stop-color="#2D4591"/>
<stop offset="1" stop-color="#1688D3"/>
</linearGradient>
<linearGradient id="paint3_linear" x1="45.4927" y1="22.5555" x2="45.4927" y2="83.3802" gradientUnits="userSpaceOnUse">
<stop stop-color="#2D4591"/>
<stop offset="1" stop-color="#1688D3"/>
</linearGradient>
</defs>
</svg>
