<svg width="150" height="44" viewBox="0 0 150 44" fill="none" xmlns="http://www.w3.org/2000/svg">
<rect width="150" height="44" rx="6" fill="#F39B2F"/>
<g filter="url(#filter0_d)">
<path d="M21.4961 32.6742C20.9443 32.6742 20.4844 32.5639 20.1165 32.3431C19.7487 32.1224 19.458 31.8318 19.2447 31.4713C19.0239 31.1107 18.8658 30.6987 18.7701 30.2352C18.6818 29.7643 18.6377 29.2861 18.6377 28.8005V28.4142C18.6377 27.936 18.6818 27.4651 18.7701 27.0016C18.8658 26.538 19.0239 26.126 19.2447 25.7655C19.4654 25.405 19.756 25.1144 20.1165 24.8936C20.4844 24.6656 20.9443 24.5515 21.4961 24.5515C21.8566 24.5515 22.1914 24.6141 22.5004 24.7391C22.8167 24.8642 23.089 25.0334 23.3171 25.2468C23.5378 25.4602 23.707 25.7103 23.8247 25.9973C23.9498 26.2842 24.0123 26.5895 24.0123 26.9133H26.4955C26.5029 26.2511 26.3815 25.6441 26.1313 25.0923C25.8885 24.5405 25.5464 24.0659 25.1049 23.6686C24.6635 23.2713 24.1337 22.9623 23.5157 22.7416C22.905 22.5208 22.2392 22.4105 21.5181 22.4105C20.6058 22.4105 19.8038 22.5723 19.1122 22.8961C18.428 23.2124 17.8541 23.6429 17.3906 24.1873C16.927 24.7318 16.5776 25.3682 16.3421 26.0966C16.114 26.825 16 27.5975 16 28.4142V28.8005C16 29.6245 16.1177 30.4007 16.3532 31.1291C16.5886 31.8502 16.9344 32.4829 17.3906 33.0274C17.8541 33.5718 18.428 34.0059 19.1122 34.3297C19.8038 34.646 20.6095 34.8042 21.5292 34.8042C22.1914 34.8042 22.8204 34.6975 23.4164 34.4842C24.0197 34.2634 24.5531 33.9655 25.0166 33.5902C25.4728 33.215 25.8333 32.7735 26.0982 32.2659C26.3704 31.7508 26.5029 31.2027 26.4955 30.6215H24.0123C24.0123 30.9231 23.9424 31.199 23.8027 31.4492C23.6702 31.6993 23.49 31.9164 23.2619 32.1003C23.0264 32.2843 22.7542 32.4277 22.4452 32.5307C22.1435 32.6264 21.8272 32.6742 21.4961 32.6742Z" fill="url(#paint0_linear)"/>
<path d="M28.6851 17.6207V19.8169H32.4595V32.3873H28.6851V34.5725H38.7392V32.3873H35.1193V17.6207H28.6851Z" fill="url(#paint1_linear)"/>
<path d="M47.683 34.5725H50.3758V34.3848C50.2287 34.0758 50.1146 33.708 50.0337 33.2812C49.9601 32.8471 49.9233 32.3615 49.9233 31.8244V26.516C49.9233 25.8391 49.7982 25.2431 49.5481 24.7281C49.2979 24.2057 48.9521 23.7753 48.5107 23.4368C48.0692 23.0984 47.5432 22.8446 46.9325 22.6753C46.3292 22.4988 45.678 22.4105 44.9791 22.4105C44.1992 22.4105 43.5039 22.5135 42.8932 22.7195C42.2899 22.9181 41.7785 23.1904 41.3592 23.5362C40.9398 23.8746 40.6197 24.2646 40.399 24.706C40.1783 25.1475 40.0642 25.6073 40.0569 26.0856H42.7056C42.7056 25.8575 42.7461 25.6441 42.827 25.4455C42.9153 25.2394 43.0477 25.0665 43.2243 24.9267C43.4009 24.7722 43.6216 24.6508 43.8865 24.5626C44.1587 24.4743 44.4751 24.4301 44.8356 24.4301C45.2329 24.4301 45.5824 24.4816 45.884 24.5846C46.1931 24.6803 46.4543 24.8201 46.6676 25.004C46.8663 25.1879 47.0171 25.405 47.1201 25.6551C47.2305 25.9053 47.2857 26.1849 47.2857 26.4939V27.2995H45.3653C44.5045 27.2995 43.732 27.3805 43.0477 27.5423C42.3708 27.7042 41.8006 27.9397 41.3371 28.2487C40.8368 28.5798 40.4542 28.9991 40.1893 29.5068C39.9318 30.0071 39.8031 30.5847 39.8031 31.2395C39.8031 31.7472 39.9024 32.2217 40.101 32.6632C40.307 33.0973 40.5903 33.4688 40.9508 33.7778C41.3187 34.0942 41.7565 34.3444 42.2641 34.5283C42.7792 34.7049 43.3457 34.7932 43.9637 34.7932C44.3463 34.7932 44.7032 34.7564 45.0343 34.6828C45.3653 34.6092 45.6744 34.5062 45.9613 34.3738C46.2482 34.2487 46.5058 34.1016 46.7338 33.9324C46.9693 33.7558 47.179 33.5718 47.3629 33.3805C47.3997 33.6086 47.4402 33.8293 47.4843 34.0427C47.5358 34.2487 47.602 34.4253 47.683 34.5725ZM44.4714 32.6742C44.133 32.6742 43.8387 32.6338 43.5885 32.5528C43.3383 32.4645 43.1287 32.3468 42.9594 32.1997C42.7902 32.0525 42.6615 31.8759 42.5732 31.6699C42.4849 31.4565 42.4407 31.2285 42.4407 30.9857C42.4407 30.6914 42.4922 30.4265 42.5952 30.1911C42.7056 29.9556 42.8711 29.7533 43.0919 29.5841C43.342 29.3854 43.6768 29.2346 44.0962 29.1316C44.5155 29.0212 45.0122 28.966 45.5861 28.966H47.2857V31.1733C47.19 31.3646 47.0539 31.5485 46.8773 31.7251C46.7007 31.9017 46.491 32.0599 46.2482 32.1997C46.0054 32.3395 45.7332 32.4535 45.4316 32.5418C45.1373 32.6301 44.8172 32.6742 44.4714 32.6742Z" fill="url(#paint2_linear)"/>
<path d="M60.1915 22.4105C59.3674 22.4105 58.6133 22.6018 57.929 22.9844C57.2522 23.367 56.6709 23.893 56.1853 24.5626L56.1743 24.2866L56.0639 22.6312H53.5918V34.5725H56.2295V27.2002C56.3693 26.8471 56.5422 26.5344 56.7482 26.2621C56.9542 25.9899 57.2043 25.7655 57.4986 25.5889C57.7709 25.405 58.0836 25.2689 58.4367 25.1806C58.7899 25.0923 59.1872 25.0481 59.6286 25.0481C60.0186 25.0481 60.4085 25.0702 60.7985 25.1144C61.1958 25.1585 61.5968 25.2247 62.0014 25.313L62.3767 22.7085C62.1486 22.6275 61.8322 22.5576 61.4276 22.4988C61.0302 22.4399 60.6182 22.4105 60.1915 22.4105Z" fill="url(#paint3_linear)"/>
<path d="M64.4228 22.6312V24.8274H68.0979V32.3873H64.4228V34.5725H74.2672V32.3873H70.7576V22.6312H64.4228ZM67.8551 19.541C67.8551 19.8206 67.9213 20.0671 68.0537 20.2805C68.1935 20.4865 68.3959 20.63 68.6607 20.7109C68.9182 20.7918 69.1537 20.8102 69.3671 20.7661C69.5804 20.7219 69.7644 20.63 69.9189 20.4902C70.2279 20.4092 70.4633 20.251 70.6252 20.0156C70.7871 19.7728 70.8422 19.4895 70.7907 19.1658C70.7539 18.8494 70.6105 18.5919 70.3603 18.3933C70.1175 18.1873 69.7975 18.0843 69.4002 18.0843C69.1647 18.0843 68.9513 18.121 68.7601 18.1946C68.5761 18.2608 68.4179 18.3565 68.2855 18.4816C68.1457 18.614 68.039 18.7722 67.9654 18.9561C67.8919 19.1327 67.8551 19.3277 67.8551 19.541Z" fill="url(#paint4_linear)"/>
<path d="M78.6971 34.5725H81.3458V24.6067H85.7714V22.6312H81.3458V21.9028C81.3458 21.4834 81.3973 21.1156 81.5003 20.7992C81.6107 20.4828 81.7726 20.2179 81.9859 20.0046C82.214 19.7765 82.5046 19.6036 82.8578 19.4859C83.2183 19.3681 83.6451 19.3093 84.138 19.3093C84.6089 19.3093 85.0283 19.3387 85.3961 19.3976C85.7714 19.4564 86.1061 19.5263 86.4005 19.6073L86.6101 17.4993C86.3894 17.4552 86.1724 17.4147 85.959 17.3779C85.7456 17.3338 85.5359 17.297 85.3299 17.2676C85.0798 17.2308 84.8223 17.2013 84.5574 17.1793C84.2999 17.1498 84.035 17.1351 83.7628 17.1351C82.9902 17.1351 82.2913 17.2381 81.6659 17.4441C81.0479 17.6502 80.5181 17.9518 80.0767 18.3491C79.6352 18.7538 79.2931 19.2541 79.0503 19.8501C78.8148 20.4387 78.6971 21.1229 78.6971 21.9028V22.6312H75.4966V24.6067H78.6971V34.5725Z" fill="url(#paint5_linear)"/>
<path d="M89.0756 39.3953C89.6569 39.3953 90.1646 39.2923 90.5987 39.0863C91.0327 38.8876 91.408 38.6375 91.7244 38.3358C92.0407 38.0415 92.3019 37.7178 92.5079 37.3646C92.7213 37.0188 92.8979 36.6914 93.0377 36.3824L99.0966 22.6312H96.172L93.2915 29.9593L92.7949 31.2395L92.3865 29.9262L89.4178 22.6312H86.5152L91.603 34.0427L90.8525 35.4664C90.7716 35.6283 90.6833 35.7828 90.5876 35.9299C90.4993 36.0771 90.3816 36.2463 90.2345 36.4376C90.0799 36.6289 89.8997 36.7981 89.6937 36.9453C89.4877 37.0998 89.2559 37.177 88.9984 37.177C88.8807 37.177 88.7262 37.1697 88.5349 37.1549C88.3509 37.1476 88.1854 37.1402 88.0382 37.1329L87.674 39.1967C87.8874 39.2482 88.1118 39.2923 88.3473 39.3291C88.5827 39.3732 88.8255 39.3953 89.0756 39.3953Z" fill="url(#paint6_linear)"/>
<path d="M102.743 32.9832C102.743 33.4909 102.909 33.9213 103.24 34.2745C103.578 34.6203 104.049 34.7932 104.652 34.7932C105.248 34.7932 105.715 34.6203 106.054 34.2745C106.4 33.9287 106.573 33.4983 106.573 32.9832C106.573 32.4682 106.403 32.0341 106.065 31.681C105.726 31.3204 105.256 31.1402 104.652 31.1402C104.042 31.1402 103.571 31.3204 103.24 31.681C102.909 32.0415 102.743 32.4756 102.743 32.9832Z" fill="url(#paint7_linear)"/>
<path d="M118.96 34.5725H121.653V34.3848C121.505 34.0758 121.391 33.708 121.31 33.2812C121.237 32.8471 121.2 32.3615 121.2 31.8244V26.516C121.2 25.8391 121.075 25.2431 120.825 24.7281C120.575 24.2057 120.229 23.7753 119.787 23.4368C119.346 23.0984 118.82 22.8446 118.209 22.6753C117.606 22.4988 116.955 22.4105 116.256 22.4105C115.476 22.4105 114.781 22.5135 114.17 22.7195C113.567 22.9181 113.055 23.1904 112.636 23.5362C112.217 23.8746 111.896 24.2646 111.676 24.706C111.455 25.1475 111.341 25.6073 111.334 26.0856H113.982C113.982 25.8575 114.023 25.6441 114.104 25.4455C114.192 25.2394 114.324 25.0665 114.501 24.9267C114.678 24.7722 114.898 24.6508 115.163 24.5626C115.435 24.4743 115.752 24.4301 116.112 24.4301C116.51 24.4301 116.859 24.4816 117.161 24.5846C117.47 24.6803 117.731 24.8201 117.944 25.004C118.143 25.1879 118.294 25.405 118.397 25.6551C118.507 25.9053 118.562 26.1849 118.562 26.4939V27.2995H116.642C115.781 27.2995 115.009 27.3805 114.324 27.5423C113.648 27.7042 113.077 27.9397 112.614 28.2487C112.114 28.5798 111.731 28.9991 111.466 29.5068C111.209 30.0071 111.08 30.5847 111.08 31.2395C111.08 31.7472 111.179 32.2217 111.378 32.6632C111.584 33.0973 111.867 33.4688 112.228 33.7778C112.595 34.0942 113.033 34.3444 113.541 34.5283C114.056 34.7049 114.622 34.7932 115.24 34.7932C115.623 34.7932 115.98 34.7564 116.311 34.6828C116.642 34.6092 116.951 34.5062 117.238 34.3738C117.525 34.2487 117.782 34.1016 118.011 33.9324C118.246 33.7558 118.456 33.5718 118.64 33.3805C118.676 33.6086 118.717 33.8293 118.761 34.0427C118.813 34.2487 118.879 34.4253 118.96 34.5725ZM115.748 32.6742C115.41 32.6742 115.115 32.6338 114.865 32.5528C114.615 32.4645 114.405 32.3468 114.236 32.1997C114.067 32.0525 113.938 31.8759 113.85 31.6699C113.762 31.4565 113.717 31.2285 113.717 30.9857C113.717 30.6914 113.769 30.4265 113.872 30.1911C113.982 29.9556 114.148 29.7533 114.369 29.5841C114.619 29.3854 114.954 29.2346 115.373 29.1316C115.792 29.0212 116.289 28.966 116.863 28.966H118.562V31.1733C118.467 31.3646 118.331 31.5485 118.154 31.7251C117.977 31.9017 117.768 32.0599 117.525 32.1997C117.282 32.3395 117.01 32.4535 116.708 32.5418C116.414 32.6301 116.094 32.6742 115.748 32.6742Z" fill="url(#paint8_linear)"/>
<path d="M123.82 22.6312V24.8274H127.495V32.3873H123.82V34.5725H133.664V32.3873H130.155V22.6312H123.82ZM127.252 19.541C127.252 19.8206 127.319 20.0671 127.451 20.2805C127.591 20.4865 127.793 20.63 128.058 20.7109C128.316 20.7918 128.551 20.8102 128.764 20.7661C128.978 20.7219 129.162 20.63 129.316 20.4902C129.625 20.4092 129.861 20.251 130.022 20.0156C130.184 19.7728 130.24 19.4895 130.188 19.1658C130.151 18.8494 130.008 18.5919 129.758 18.3933C129.515 18.1873 129.195 18.0843 128.797 18.0843C128.562 18.0843 128.349 18.121 128.157 18.1946C127.973 18.2608 127.815 18.3565 127.683 18.4816C127.543 18.614 127.436 18.7722 127.363 18.9561C127.289 19.1327 127.252 19.3277 127.252 19.541Z" fill="url(#paint9_linear)"/>
<path d="M104.548 16.7352L99.3888 5H94.887L102.508 20.6639L102.525 29.5496H106.487L106.521 20.7819L114.21 5H109.691L104.548 16.7352Z" fill="url(#paint10_linear)"/>
</g>
<defs>
<filter id="filter0_d" x="15" y="4" width="121.664" height="38.3953" filterUnits="userSpaceOnUse" color-interpolation-filters="sRGB">
<feFlood flood-opacity="0" result="BackgroundImageFix"/>
<feColorMatrix in="SourceAlpha" type="matrix" values="0 0 0 0 0 0 0 0 0 0 0 0 0 0 0 0 0 0 127 0"/>
<feOffset dx="1" dy="1"/>
<feGaussianBlur stdDeviation="1"/>
<feColorMatrix type="matrix" values="0 0 0 0 0 0 0 0 0 0 0 0 0 0 0 0 0 0 0.25 0"/>
<feBlend mode="normal" in2="BackgroundImageFix" result="effect1_dropShadow"/>
<feBlend mode="normal" in="SourceGraphic" in2="effect1_dropShadow" result="shape"/>
</filter>
<linearGradient id="paint0_linear" x1="74.8322" y1="17.1351" x2="74.8322" y2="39.3953" gradientUnits="userSpaceOnUse">
<stop stop-color="#2D4591"/>
<stop offset="1" stop-color="#158BD6"/>
</linearGradient>
<linearGradient id="paint1_linear" x1="74.8322" y1="17.1351" x2="74.8322" y2="39.3953" gradientUnits="userSpaceOnUse">
<stop stop-color="#2D4591"/>
<stop offset="1" stop-color="#158BD6"/>
</linearGradient>
<linearGradient id="paint2_linear" x1="74.8322" y1="17.1351" x2="74.8322" y2="39.3953" gradientUnits="userSpaceOnUse">
<stop stop-color="#2D4591"/>
<stop offset="1" stop-color="#158BD6"/>
</linearGradient>
<linearGradient id="paint3_linear" x1="74.8322" y1="17.1351" x2="74.8322" y2="39.3953" gradientUnits="userSpaceOnUse">
<stop stop-color="#2D4591"/>
<stop offset="1" stop-color="#158BD6"/>
</linearGradient>
<linearGradient id="paint4_linear" x1="74.8322" y1="17.1351" x2="74.8322" y2="39.3953" gradientUnits="userSpaceOnUse">
<stop stop-color="#2D4591"/>
<stop offset="1" stop-color="#158BD6"/>
</linearGradient>
<linearGradient id="paint5_linear" x1="74.8322" y1="17.1351" x2="74.8322" y2="39.3953" gradientUnits="userSpaceOnUse">
<stop stop-color="#2D4591"/>
<stop offset="1" stop-color="#158BD6"/>
</linearGradient>
<linearGradient id="paint6_linear" x1="74.8322" y1="17.1351" x2="74.8322" y2="39.3953" gradientUnits="userSpaceOnUse">
<stop stop-color="#2D4591"/>
<stop offset="1" stop-color="#158BD6"/>
</linearGradient>
<linearGradient id="paint7_linear" x1="74.8322" y1="17.1351" x2="74.8322" y2="39.3953" gradientUnits="userSpaceOnUse">
<stop stop-color="#2D4591"/>
<stop offset="1" stop-color="#158BD6"/>
</linearGradient>
<linearGradient id="paint8_linear" x1="74.8322" y1="17.1351" x2="74.8322" y2="39.3953" gradientUnits="userSpaceOnUse">
<stop stop-color="#2D4591"/>
<stop offset="1" stop-color="#158BD6"/>
</linearGradient>
<linearGradient id="paint9_linear" x1="74.8322" y1="17.1351" x2="74.8322" y2="39.3953" gradientUnits="userSpaceOnUse">
<stop stop-color="#2D4591"/>
<stop offset="1" stop-color="#158BD6"/>
</linearGradient>
<linearGradient id="paint10_linear" x1="104.548" y1="5" x2="104.548" y2="29.5496" gradientUnits="userSpaceOnUse">
<stop stop-color="#2D4490"/>
<stop offset="1" stop-color="#158BD6"/>
</linearGradient>
</defs>
</svg>
