<svg width="175" height="51" viewBox="0 0 175 51" fill="none" xmlns="http://www.w3.org/2000/svg">
<path d="M8.14938 41.0342C7.33117 41.0342 6.64933 40.8706 6.10385 40.5433C5.55838 40.216 5.12746 39.7851 4.81108 39.2505C4.4838 38.716 4.24924 38.105 4.10742 37.4177C3.97651 36.7195 3.91105 36.0104 3.91105 35.2904V34.7176C3.91105 34.0085 3.97651 33.3103 4.10742 32.623C4.24924 31.9357 4.4838 31.3248 4.81108 30.7902C5.13837 30.2557 5.56929 29.8247 6.10385 29.4975C6.64933 29.1593 7.33117 28.9902 8.14938 28.9902C8.68395 28.9902 9.18033 29.0829 9.63853 29.2684C10.1076 29.4538 10.5113 29.7047 10.8495 30.0211C11.1768 30.3375 11.4277 30.7084 11.6022 31.1339C11.7877 31.5593 11.8804 32.0121 11.8804 32.4921H15.5624C15.5733 31.5103 15.3933 30.6102 15.0224 29.792C14.6623 28.9738 14.1551 28.2701 13.5005 27.681C12.8459 27.0919 12.0604 26.6337 11.144 26.3064C10.2385 25.9791 9.25124 25.8155 8.18211 25.8155C6.82933 25.8155 5.6402 26.0555 4.61471 26.5355C3.60013 27.0046 2.74919 27.6428 2.06189 28.4501C1.37459 29.2574 0.856394 30.2011 0.507291 31.2812C0.169097 32.3612 0 33.5067 0 34.7176V35.2904C0 36.5122 0.174552 37.6632 0.523655 38.7432C0.872758 39.8124 1.3855 40.7506 2.06189 41.5579C2.74919 42.3652 3.60013 43.0088 4.61471 43.4889C5.6402 43.958 6.83479 44.1925 8.19847 44.1925C9.18033 44.1925 10.1131 44.0343 10.9968 43.718C11.8913 43.3907 12.6823 42.9488 13.3696 42.3925C14.046 41.8361 14.5805 41.1815 14.9733 40.4288C15.3769 39.6651 15.5733 38.8523 15.5624 37.9905H11.8804C11.8804 38.4378 11.7768 38.8469 11.5695 39.2178C11.3731 39.5887 11.1059 39.9106 10.7677 40.1833C10.4186 40.456 10.0149 40.6688 9.5567 40.8215C9.10942 40.9633 8.64031 41.0342 8.14938 41.0342Z" fill="white"/>
<path d="M18.809 18.7134V21.9699H24.4056V40.6088H18.809V43.8489H33.7168V40.6088H28.3494V18.7134H18.809Z" fill="white"/>
<path d="M46.9784 43.8489H50.9713V43.5707C50.7531 43.1125 50.584 42.567 50.464 41.9343C50.3549 41.2906 50.3003 40.5706 50.3003 39.7742V31.903C50.3003 30.8993 50.1149 30.0157 49.744 29.252C49.373 28.4774 48.8603 27.8392 48.2057 27.3374C47.5511 26.8355 46.7711 26.4592 45.8656 26.2082C44.9711 25.9464 44.0056 25.8155 42.9692 25.8155C41.8128 25.8155 40.7818 25.9682 39.8763 26.2737C38.9818 26.5683 38.2235 26.9719 37.6017 27.4847C36.9799 27.9865 36.5053 28.5647 36.178 29.2193C35.8507 29.8738 35.6816 30.5557 35.6707 31.2648H39.5981C39.5981 30.9266 39.6581 30.6102 39.7781 30.3157C39.9091 30.0102 40.1054 29.7538 40.3673 29.5465C40.6291 29.3174 40.9564 29.1374 41.3491 29.0065C41.7528 28.8756 42.2219 28.8102 42.7564 28.8102C43.3455 28.8102 43.8637 28.8865 44.311 29.0393C44.7692 29.1811 45.1565 29.3884 45.4729 29.6611C45.7674 29.9338 45.9911 30.2557 46.1438 30.6266C46.3075 30.9975 46.3893 31.4121 46.3893 31.8703V33.0649H43.5419C42.2655 33.0649 41.12 33.1849 40.1054 33.4249C39.1018 33.6649 38.2563 34.014 37.569 34.4722C36.8271 34.9631 36.2598 35.5849 35.8671 36.3377C35.4853 37.0795 35.2943 37.9359 35.2943 38.9069C35.2943 39.6596 35.4416 40.3633 35.7362 41.0179C36.0416 41.6615 36.4617 42.2125 36.9962 42.6707C37.5417 43.1398 38.1908 43.5107 38.9436 43.7834C39.7072 44.0452 40.5473 44.1762 41.4637 44.1762C42.031 44.1762 42.5601 44.1216 43.051 44.0125C43.5419 43.9034 44.0001 43.7507 44.4256 43.5543C44.8511 43.3689 45.2329 43.1507 45.5711 42.8997C45.9202 42.6379 46.2311 42.3652 46.5038 42.0815C46.5584 42.4197 46.6184 42.747 46.6838 43.0634C46.7602 43.3689 46.8584 43.6307 46.9784 43.8489ZM42.2164 41.0342C41.7146 41.0342 41.2782 40.9742 40.9073 40.8542C40.5364 40.7233 40.2254 40.5488 39.9745 40.3306C39.7236 40.1124 39.5327 39.8505 39.4018 39.5451C39.2709 39.2287 39.2054 38.8905 39.2054 38.5305C39.2054 38.0941 39.2818 37.7014 39.4345 37.3523C39.5981 37.0032 39.8436 36.7032 40.1709 36.4522C40.5418 36.1577 41.0382 35.934 41.66 35.7813C42.2819 35.6177 43.0183 35.5359 43.8692 35.5359H46.3893V38.8087C46.2475 39.0923 46.0456 39.3651 45.7838 39.6269C45.522 39.8887 45.2111 40.1233 44.8511 40.3306C44.491 40.5378 44.0874 40.7069 43.6401 40.8379C43.2037 40.9688 42.7292 41.0342 42.2164 41.0342Z" fill="white"/>
<path d="M65.5256 25.8155C64.3037 25.8155 63.1855 26.0992 62.1709 26.6664C61.1673 27.2337 60.3054 28.0138 59.5854 29.0065L59.569 28.5974L59.4054 26.1428H55.7398V43.8489H59.6509V32.9176C59.8581 32.3939 60.1145 31.9303 60.42 31.5266C60.7254 31.123 61.0964 30.7902 61.5327 30.5284C61.9364 30.2557 62.4 30.0538 62.9237 29.9229C63.4474 29.792 64.0365 29.7266 64.691 29.7266C65.2692 29.7266 65.8474 29.7593 66.4256 29.8247C67.0148 29.8902 67.6093 29.9884 68.2093 30.1193L68.7657 26.2573C68.4275 26.1373 67.9584 26.0337 67.3584 25.9464C66.7693 25.8591 66.1584 25.8155 65.5256 25.8155Z" fill="white"/>
<path d="M71.7997 26.1428V29.3993H77.2489V40.6088H71.7997V43.8489H86.3965V40.6088H81.1927V26.1428H71.7997ZM76.8889 21.5608C76.8889 21.9754 76.9871 22.3408 77.1835 22.6572C77.3908 22.9627 77.6908 23.1754 78.0835 23.2954C78.4653 23.4154 78.8144 23.4427 79.1308 23.3772C79.4472 23.3118 79.7199 23.1754 79.949 22.9681C80.4072 22.8481 80.7563 22.6136 80.9963 22.2645C81.2364 21.9045 81.3182 21.4844 81.2418 21.0044C81.1873 20.5353 80.9745 20.1535 80.6036 19.8589C80.2436 19.5535 79.769 19.4007 79.1799 19.4007C78.8308 19.4007 78.5144 19.4553 78.2308 19.5644C77.9581 19.6626 77.7235 19.8044 77.5271 19.9898C77.3198 20.1862 77.1617 20.4208 77.0526 20.6935C76.9435 20.9553 76.8889 21.2444 76.8889 21.5608Z" fill="white"/>
<path d="M92.9651 43.8489H96.8925V29.072H103.455V26.1428H96.8925V25.0628C96.8925 24.4409 96.9689 23.8954 97.1216 23.4263C97.2853 22.9572 97.5253 22.5645 97.8417 22.2481C98.1799 21.9099 98.6108 21.6535 99.1344 21.479C99.669 21.3044 100.302 21.2172 101.033 21.2172C101.731 21.2172 102.353 21.2608 102.898 21.3481C103.455 21.4353 103.951 21.539 104.387 21.659L104.698 18.5334C104.371 18.468 104.049 18.408 103.733 18.3534C103.416 18.288 103.105 18.2334 102.8 18.1898C102.429 18.1352 102.047 18.0916 101.655 18.0589C101.273 18.0152 100.88 17.9934 100.476 17.9934C99.3308 17.9934 98.2944 18.1461 97.3671 18.4516C96.4507 18.7571 95.6652 19.2044 95.0107 19.7935C94.3561 20.3935 93.8488 21.1353 93.4888 22.019C93.1397 22.8918 92.9651 23.9063 92.9651 25.0628V26.1428H88.2195V29.072H92.9651V43.8489Z" fill="white"/>
<path d="M108.354 51C109.216 51 109.969 50.8473 110.612 50.5418C111.256 50.2473 111.812 49.8764 112.281 49.4291C112.751 48.9927 113.138 48.5127 113.443 47.989C113.76 47.4763 114.022 46.9908 114.229 46.5326L123.213 26.1428H118.876L114.605 37.0086L113.869 38.9069L113.263 36.9595L108.861 26.1428H104.558L112.101 43.0634L110.989 45.1744C110.869 45.4144 110.738 45.6435 110.596 45.8617C110.465 46.0799 110.29 46.3308 110.072 46.6144C109.843 46.8981 109.576 47.149 109.27 47.3672C108.965 47.5963 108.621 47.7108 108.24 47.7108C108.065 47.7108 107.836 47.6999 107.552 47.6781C107.279 47.6672 107.034 47.6563 106.816 47.6454L106.276 50.7055C106.592 50.7818 106.925 50.8473 107.274 50.9019C107.623 50.9673 107.983 51 108.354 51Z" fill="white"/>
<path d="M128.62 41.4924C128.62 42.2452 128.865 42.8834 129.356 43.407C129.858 43.9198 130.556 44.1762 131.451 44.1762C132.334 44.1762 133.027 43.9198 133.529 43.407C134.042 42.8943 134.298 42.2561 134.298 41.4924C134.298 40.7288 134.047 40.0851 133.545 39.5614C133.043 39.0269 132.345 38.7596 131.451 38.7596C130.545 38.7596 129.847 39.0269 129.356 39.5614C128.865 40.096 128.62 40.7397 128.62 41.4924Z" fill="white"/>
<path d="M152.665 43.8489H156.658V43.5707C156.44 43.1125 156.271 42.567 156.151 41.9343C156.042 41.2906 155.987 40.5706 155.987 39.7742V31.903C155.987 30.8993 155.802 30.0157 155.431 29.252C155.06 28.4774 154.547 27.8392 153.892 27.3374C153.238 26.8355 152.458 26.4592 151.552 26.2082C150.658 25.9464 149.692 25.8155 148.656 25.8155C147.499 25.8155 146.468 25.9682 145.563 26.2737C144.668 26.5683 143.91 26.9719 143.288 27.4847C142.667 27.9865 142.192 28.5647 141.865 29.2193C141.537 29.8738 141.368 30.5557 141.357 31.2648H145.285C145.285 30.9266 145.345 30.6102 145.465 30.3157C145.596 30.0102 145.792 29.7538 146.054 29.5465C146.316 29.3174 146.643 29.1374 147.036 29.0065C147.439 28.8756 147.909 28.8102 148.443 28.8102C149.032 28.8102 149.55 28.8865 149.998 29.0393C150.456 29.1811 150.843 29.3884 151.16 29.6611C151.454 29.9338 151.678 30.2557 151.831 30.6266C151.994 30.9975 152.076 31.4121 152.076 31.8703V33.0649H149.229C147.952 33.0649 146.807 33.1849 145.792 33.4249C144.788 33.6649 143.943 34.014 143.256 34.4722C142.514 34.9631 141.947 35.5849 141.554 36.3377C141.172 37.0795 140.981 37.9359 140.981 38.9069C140.981 39.6596 141.128 40.3633 141.423 41.0179C141.728 41.6615 142.148 42.2125 142.683 42.6707C143.228 43.1398 143.877 43.5107 144.63 43.7834C145.394 44.0452 146.234 44.1762 147.15 44.1762C147.718 44.1762 148.247 44.1216 148.738 44.0125C149.229 43.9034 149.687 43.7507 150.112 43.5543C150.538 43.3689 150.92 43.1507 151.258 42.8997C151.607 42.6379 151.918 42.3652 152.191 42.0815C152.245 42.4197 152.305 42.747 152.371 43.0634C152.447 43.3689 152.545 43.6307 152.665 43.8489ZM147.903 41.0342C147.401 41.0342 146.965 40.9742 146.594 40.8542C146.223 40.7233 145.912 40.5488 145.661 40.3306C145.41 40.1124 145.219 39.8505 145.088 39.5451C144.958 39.2287 144.892 38.8905 144.892 38.5305C144.892 38.0941 144.968 37.7014 145.121 37.3523C145.285 37.0032 145.53 36.7032 145.858 36.4522C146.228 36.1577 146.725 35.934 147.347 35.7813C147.969 35.6177 148.705 35.5359 149.556 35.5359H152.076V38.8087C151.934 39.0923 151.732 39.3651 151.47 39.6269C151.209 39.8887 150.898 40.1233 150.538 40.3306C150.178 40.5378 149.774 40.7069 149.327 40.8379C148.89 40.9688 148.416 41.0342 147.903 41.0342Z" fill="white"/>
<path d="M159.872 26.1428V29.3993H165.321V40.6088H159.872V43.8489H174.469V40.6088H169.265V26.1428H159.872ZM164.961 21.5608C164.961 21.9754 165.059 22.3408 165.256 22.6572C165.463 22.9627 165.763 23.1754 166.156 23.2954C166.538 23.4154 166.887 23.4427 167.203 23.3772C167.519 23.3118 167.792 23.1754 168.021 22.9681C168.479 22.8481 168.829 22.6136 169.069 22.2645C169.309 21.9045 169.39 21.4844 169.314 21.0044C169.26 20.5353 169.047 20.1535 168.676 19.8589C168.316 19.5535 167.841 19.4007 167.252 19.4007C166.903 19.4007 166.587 19.4553 166.303 19.5644C166.03 19.6626 165.796 19.8044 165.599 19.9898C165.392 20.1862 165.234 20.4208 165.125 20.6935C165.016 20.9553 164.961 21.2444 164.961 21.5608Z" fill="white"/>
<path d="M131.296 17.4006L123.646 0H116.971L128.271 23.2258L128.296 36.4013H134.171L134.221 23.4008L145.622 0H138.922L131.296 17.4006Z" fill="white"/>
</svg>
